{"accessors" : [{"bufferView" : 0, "byteOffset" : 0, "componentType" : 5123, "count" : 50748, "type" : "SCALAR", "max" : [49444], "min" : [0]}, {"bufferView" : 1, "byteOffset" : 0, "componentType" : 5126, "count" : 49445, "type" : "VEC3", "max" : [2.997835397720337, 0.926249623298645, 0.1349637806415558], "min" : [0.0021707669366151094, 0.0021715527400374413, 0], "name" : "POSITION"}, {"bufferView" : 1, "byteOffset" : 12, "componentType" : 5126, "count" : 49445, "type" : "VEC3", "max" : [0.9997730851173401, 0.9993948936462402, 1.0000044107437134], "min" : [-0.9997730255126953, -0.9992467164993286, -1.0000044107437134], "name" : "NORMAL"}], "asset" : {"generator" : "Aspose.3D 22.3", "version" : "2.0"}, "buffers" : [{"uri" : "data:application/octet-stream;base64,", "byteLength" : 1319456}], "bufferViews" : [{"buffer" : 0, "byteOffset" : 0, "byteLength" : 101496, "target" : 34963}, {"buffer" : 0, "byteOffset" : 101500, "byteLength" : 1217952, "byteStride" : 24, "target" : 34962}], "meshes" : [{"primitives" : [{"attributes" : {"POSITION" : 1, "NORMAL" : 2}, "indices" : 0, "mode" : 4}], "name" : ""}], "nodes" : [{"mesh" : 0, "name" : ""}], "scene" : 0, "scenes" : [{"nodes" : [0]}]}