{"accessors" : [{"bufferView" : 0, "byteOffset" : 0, "componentType" : 5123, "count" : 42018, "type" : "SCALAR", "max" : [40797], "min" : [0]}, {"bufferView" : 1, "byteOffset" : 0, "componentType" : 5126, "count" : 40798, "type" : "VEC3", "max" : [2.997835397720337, 0.8698505163192749, 0.15783269703388214], "min" : [0.0021707669366151094, 0.02820192091166973, 0], "name" : "POSITION"}, {"bufferView" : 1, "byteOffset" : 12, "componentType" : 5126, "count" : 40798, "type" : "VEC3", "max" : [0.9994879364967346, 0.9995142817497253, 1.0000044107437134], "min" : [-0.999488353729248, -0.9994815587997437, -1.0000044107437134], "name" : "NORMAL"}], "asset" : {"generator" : "Aspose.3D 22.3", "version" : "2.0"}, "buffers" : [{"uri" : "data:application/octet-stream;base64,", "byteLength" : 1092476}], "bufferViews" : [{"buffer" : 0, "byteOffset" : 0, "byteLength" : 84036, "target" : 34963}, {"buffer" : 0, "byteOffset" : 84040, "byteLength" : 1008432, "byteStride" : 24, "target" : 34962}], "meshes" : [{"primitives" : [{"attributes" : {"POSITION" : 1, "NORMAL" : 2}, "indices" : 0, "mode" : 4}], "name" : ""}], "nodes" : [{"mesh" : 0, "name" : ""}], "scene" : 0, "scenes" : [{"nodes" : [0]}]}